<svg id="visual" viewBox="0 0 1400 600" width="1400" height="600" xmlns="http://www.w3.org/2000/svg" xmlns:xlink="http://www.w3.org/1999/xlink" version="1.1"><path d="M0 170L46.7 165.8C93.3 161.7 186.7 153.3 280 156.7C373.3 160 466.7 175 560 197C653.3 219 746.7 248 840 263C933.3 278 1026.7 279 1120 273C1213.3 267 1306.7 254 1353.3 247.5L1400 241L1400 0L1353.3 0C1306.7 0 1213.3 0 1120 0C1026.7 0 933.3 0 840 0C746.7 0 653.3 0 560 0C466.7 0 373.3 0 280 0C186.7 0 93.3 0 46.7 0L0 0Z" fill="#05595B" stroke-linecap="round" stroke-linejoin="miter"></path></svg>